<svg viewBox="0 0 400 340" fill="none" xmlns="http://www.w3.org/2000/svg" class="">
          <!-- Background blob -->
          <ellipse cx="200" cy="185" rx="170" ry="145" fill="#122236"/>

          <!-- Monitor frame -->
          <rect x="90" y="70" width="220" height="150" rx="10" fill="#1E3A8A"/>
          <!-- Screen bezel -->
          <rect x="100" y="80" width="200" height="130" rx="6" fill="#1E40AF"/>
          <!-- Screen surface -->
          <rect x="108" y="88" width="184" height="114" rx="4" fill="#1D4ED8"/>

          <!-- Code lines -->
          <rect x="120" y="102" width="48" height="7" rx="3" fill="#93C5FD"/>
          <rect x="128" y="117" width="76" height="7" rx="3" fill="#60A5FA"/>
          <rect x="128" y="132" width="56" height="7" rx="3" fill="#BFDBFE"/>
          <rect x="136" y="147" width="68" height="7" rx="3" fill="#93C5FD"/>
          <rect x="120" y="162" width="86" height="7" rx="3" fill="#60A5FA"/>
          <rect x="120" y="177" width="38" height="7" rx="3" fill="#BFDBFE"/>

          <!-- Bracket decoration -->
          <text x="237" y="160" font-family="monospace" font-size="42" fill="#3B82F6" opacity="0.35">{ }</text>

          <!-- Monitor neck -->
          <rect x="182" y="220" width="36" height="16" rx="3" fill="#1E3A8A"/>
          <!-- Monitor base -->
          <rect x="158" y="234" width="84" height="9" rx="4" fill="#1E3A8A"/>

          <!-- Desk -->
          <rect x="75" y="243" width="250" height="10" rx="5" fill="#374151"/>

          <!-- Keyboard -->
          <rect x="112" y="253" width="176" height="22" rx="5" fill="#374151"/>
          <rect x="120" y="258" width="160" height="11" rx="3" fill="#4B5563"/>
          <rect x="124" y="260" width="18" height="4" rx="1" fill="#6B7280"/>
          <rect x="146" y="260" width="18" height="4" rx="1" fill="#6B7280"/>
          <rect x="168" y="260" width="18" height="4" rx="1" fill="#6B7280"/>
          <rect x="190" y="260" width="18" height="4" rx="1" fill="#6B7280"/>
          <rect x="212" y="260" width="18" height="4" rx="1" fill="#6B7280"/>
          <rect x="124" y="267" width="18" height="3" rx="1" fill="#6B7280"/>
          <rect x="146" y="267" width="52" height="3" rx="1" fill="#6B7280"/>
          <rect x="202" y="267" width="26" height="3" rx="1" fill="#6B7280"/>

          <!-- Floating skill badges -->
          <circle cx="58" cy="145" r="24" fill="#7C3AED"/>
          <text x="58" y="151" text-anchor="middle" font-family="sans-serif" font-weight="700" font-size="11" fill="white">PHP</text>

          <circle cx="342" cy="110" r="24" fill="#EA580C"/>
          <text x="342" y="116" text-anchor="middle" font-family="sans-serif" font-weight="700" font-size="10" fill="white">HTML5</text>

          <circle cx="352" cy="196" r="22" fill="#0369A1"/>
          <text x="352" y="202" text-anchor="middle" font-family="sans-serif" font-weight="700" font-size="11" fill="white">CSS3</text>

          <circle cx="60" cy="225" r="22" fill="#CA8A04"/>
          <text x="60" y="231" text-anchor="middle" font-family="sans-serif" font-weight="700" font-size="11" fill="white">jQuery</text>
        </svg>